<svg version="1.1" xmlns="http://www.w3.org/2000/svg" viewBox="0 0 592.3347310584154 360.837044534413" width="592.3347310584154" height="360.837044534413">
  <!-- svg-source:excalidraw -->
  
  <defs>
    <style class="style-fonts">
      @font-face {
        font-family: "Virgil";
        src: url("https://excalidraw.com/Virgil.woff2");
      }
      @font-face {
        font-family: "Cascadia";
        src: url("https://excalidraw.com/Cascadia.woff2");
      }
    </style>
  </defs>
  <rect x="0" y="0" width="592.3347310584154" height="360.837044534413" fill="#ffffff"></rect><g stroke-linecap="round" transform="translate(108.07272990167729 316.31651243493354) rotate(0 61.98004626951996 17.260266049739734)"><path d="M0.68 0.15 C33.91 1.14, 73.18 4.8, 122 0.52 M1.25 1.74 C35.68 -2.16, 71.46 -0.68, 122.25 -1.35 M122.3 3.34 C126.56 9.4, 125.65 15.14, 120.95 31.24 M122.21 0.33 C123.84 8.4, 124.04 21.98, 124.11 36.2 M126.1 34.66 C84.74 35.91, 45.61 36, 3.58 31.72 M125.08 33.22 C77.24 33.26, 33.27 33.78, -0.03 35.74 M2.27 32.59 C-4.5 21.11, -2.99 19.37, 2.41 3.9 M0.48 35.93 C0.92 23.64, 1.15 15.63, 0.16 -0.83" stroke="#e45d61" stroke-width="2" fill="none"></path></g><g stroke-linecap="round" transform="translate(250.07764603817236 316.31651243493354) rotate(0 61.98004626951996 17.260266049739734)"><path d="M-2.95 -3.48 C34.84 3.31, 71 1.14, 123.49 0.29 M0.44 0.51 C41.37 0.4, 78.53 0.83, 122.47 -1.23 M123.13 -3.17 C122.67 17.25, 121.77 24.47, 121.3 36.97 M125.87 -0.85 C125.78 11.15, 122.69 23.59, 122.63 33.48 M121.06 34.71 C78.87 34.59, 33.94 36.24, -3.84 35.2 M123.97 35.73 C85.34 34.02, 48.36 34.31, 0.52 35.77 M1.96 34.43 C-3.57 18.46, -3.79 10.85, 1.28 -1.66 M0.58 34.88 C-1.86 19.64, -0.51 9.3, 1.31 -1.75" stroke="#e45d61" stroke-width="2" fill="none"></path></g><g stroke-linecap="round" transform="translate(394.4362348178138 316.31651243493354) rotate(0 61.98004626951996 17.260266049739734)"><path d="M1.02 2.54 C40.6 -1.86, 79.95 3.36, 126.75 2.33 M0.25 1.1 C37.43 0.62, 75.79 -1.42, 125.26 -1.41 M125.25 3.28 C122.99 12.24, 122.95 22.65, 127.82 33.12 M123.94 1.85 C121.62 10.52, 125.07 19.16, 123.95 33.55 M125.38 33.94 C99.9 33.46, 77.3 31.06, -1.68 36.49 M122.56 34.11 C82.94 35.25, 41.21 33.68, -0.02 34.36 M-0.75 31.91 C-4 25.32, 2.69 8.16, 2.05 -0.34 M-0.48 34.84 C-2.16 26.42, -2.27 19.08, -0.36 0.16" stroke="#e45d61" stroke-width="2" fill="none"></path></g><g stroke-linecap="round" transform="translate(108.07272990167729 268.8554077501446) rotate(0 206.33863504916135 17.260266049739734)"><path d="M0.11 1.39 C84.81 4.57, 172.93 3.23, 411.32 -2.11 M-0.59 0.57 C123.32 3.35, 246.29 2.98, 413.19 0.48 M411.46 -2.52 C408.5 8.29, 414.59 14.41, 409.3 36.93 M412.96 -0.61 C413.1 9.57, 414.29 21.85, 411.62 32.66 M413.97 36.32 C272.84 33.01, 133.03 32.58, 1.08 34.66 M412.72 35.31 C270.88 37.86, 129.07 37.31, -0.42 35.19 M-0.47 35.43 C-2.5 19.07, -3.93 8.61, 2.04 -0.48 M0.38 34.96 C0.5 24.72, 0.59 15.84, 0.92 -0.59" stroke="#e45d61" stroke-width="2" fill="none"></path></g><g stroke-linecap="round" transform="translate(465.43565644881437 76.68739155581261) rotate(0 25.105841526894153 25.10584152689416)"><path d="M39.95 6.05 C44.04 9.11, 46.9 14.64, 48.54 19.26 C50.18 23.88, 51.91 28.96, 49.8 33.75 C47.68 38.55, 41.12 45.61, 35.86 48.03 C30.6 50.46, 23.7 49.91, 18.23 48.29 C12.75 46.67, 6.21 42.17, 2.99 38.33 C-0.22 34.48, -1.92 30.2, -1.04 25.21 C-0.17 20.22, 4.56 12.38, 8.24 8.38 C11.93 4.39, 14.14 -0.51, 21.08 1.24 C28.03 3, 45.63 12.67, 49.91 18.88 C54.19 25.1, 47.39 38.26, 46.76 38.54 M14.28 1.2 C18.66 -0.74, 23.23 0.68, 28.24 1.8 C33.25 2.93, 41.01 3.45, 44.37 7.96 C47.73 12.47, 48.99 23.03, 48.42 28.86 C47.85 34.69, 44.32 39.04, 40.98 42.94 C37.64 46.83, 32.88 52.14, 28.36 52.23 C23.84 52.32, 18.22 46.42, 13.86 43.49 C9.51 40.56, 4.43 39.62, 2.25 34.65 C0.08 29.67, -0.97 18.72, 0.81 13.62 C2.6 8.53, 10.7 5.71, 12.94 4.07 C15.19 2.43, 13.61 3.92, 14.27 3.77" stroke="#e45d61" stroke-width="2" fill="none"></path></g><g stroke-linecap="round" transform="translate(405.0247252747253 152.78947368421055) rotate(0 14.514314632735676 14.514314632735687)"><path d="M4.47 8.15 C5.8 5.59, 7.02 2.51, 9.89 1.18 C12.77 -0.14, 18.83 -0.99, 21.72 0.2 C24.61 1.39, 25.86 5.58, 27.23 8.32 C28.6 11.06, 30.99 13.86, 29.96 16.65 C28.93 19.43, 23.5 22.9, 21.06 25.03 C18.63 27.15, 18.22 29.1, 15.35 29.37 C12.48 29.64, 6.49 28.76, 3.85 26.64 C1.22 24.51, -0.61 20.29, -0.46 16.62 C-0.32 12.94, 2.59 7.55, 4.7 4.59 C6.82 1.63, 12.13 -1.21, 12.22 -1.15 M20.5 2.28 C23.98 3.11, 28.64 4.41, 29.92 6.64 C31.2 8.87, 29.31 12.14, 28.19 15.68 C27.06 19.22, 25.48 25.88, 23.19 27.9 C20.9 29.93, 17.35 28.05, 14.47 27.83 C11.58 27.61, 7.89 28.84, 5.88 26.61 C3.86 24.39, 2.73 18.13, 2.36 14.49 C2 10.85, 2.73 6.91, 3.68 4.78 C4.64 2.65, 5.29 2.34, 8.09 1.7 C10.89 1.07, 18.31 1.25, 20.5 0.97 C22.69 0.69, 21.87 -0.55, 21.22 0.02" stroke="#e45d61" stroke-width="2" fill="none"></path></g><g stroke-linecap="round" transform="translate(452.8827356853673 152.78947368421055) rotate(0 14.514314632735676 14.514314632735687)"><path d="M3.21 1.71 C5.21 -0.47, 12.23 0.49, 15.56 0.69 C18.88 0.9, 20.81 0.93, 23.14 2.96 C25.46 5, 28.52 9.84, 29.5 12.9 C30.48 15.96, 30.74 18.95, 29 21.34 C27.27 23.74, 22.41 25.86, 19.09 27.26 C15.78 28.65, 12 30.73, 9.13 29.69 C6.27 28.65, 3.32 23.84, 1.91 21 C0.5 18.17, -1.46 16.45, 0.66 12.67 C2.78 8.89, 10.97 0.37, 14.66 -1.66 C18.34 -3.68, 23.17 -0.09, 22.79 0.53 M18.38 -1.46 C21.56 -0.96, 27.81 3.96, 29.24 7.09 C30.67 10.22, 28.35 14.18, 26.97 17.32 C25.58 20.46, 22.88 23.93, 20.94 25.92 C19 27.9, 18.04 29.55, 15.35 29.21 C12.66 28.87, 7.03 26.16, 4.8 23.85 C2.58 21.54, 2.4 17.64, 2.01 15.34 C1.61 13.04, 1.61 12.08, 2.44 10.04 C3.28 7.99, 4.23 4.92, 7 3.09 C9.78 1.26, 16.87 -0.46, 19.09 -0.95 C21.3 -1.44, 19.81 -0.49, 20.3 0.15" stroke="#e45d61" stroke-width="2" fill="none"></path></g><g stroke-linecap="round" transform="translate(504.6635338345865 152.78947368421055) rotate(0 14.514314632735704 14.514314632735687)"><path d="M7.91 2.87 C10.24 0.97, 13.68 -1.66, 16.94 -1.21 C20.2 -0.76, 25.67 2.82, 27.48 5.58 C29.29 8.34, 28.49 12.2, 27.79 15.36 C27.09 18.51, 25.08 22.24, 23.27 24.52 C21.46 26.8, 19.75 28.86, 16.95 29.03 C14.14 29.2, 8.96 27.44, 6.44 25.56 C3.93 23.68, 2.69 20.19, 1.86 17.73 C1.02 15.27, 0.36 13.39, 1.44 10.79 C2.52 8.2, 6.56 4.11, 8.34 2.18 C10.12 0.25, 11.69 -0.65, 12.15 -0.78 M27.13 8.57 C29.06 10.29, 31.43 12.58, 30.6 15.29 C29.77 18, 24.61 22.88, 22.17 24.83 C19.74 26.77, 18.56 26.3, 16.01 26.96 C13.46 27.62, 9.05 30.06, 6.88 28.79 C4.71 27.52, 3.86 22.87, 2.99 19.34 C2.11 15.8, 0.32 10.41, 1.63 7.59 C2.94 4.77, 7.54 3.5, 10.83 2.41 C14.13 1.33, 18.99 0.55, 21.4 1.08 C23.81 1.6, 24 4.14, 25.29 5.55 C26.58 6.96, 29 9.55, 29.12 9.54" stroke="#e45d61" stroke-width="2" fill="none"></path></g><g stroke-linecap="round" transform="translate(553.306101792944 152.78947368421055) rotate(0 14.514314632735704 14.514314632735687)"><path d="M26.51 5.12 C28.83 6.74, 29.74 9.44, 29.56 12.17 C29.37 14.9, 27.47 18.61, 25.4 21.49 C23.32 24.37, 20.18 28.13, 17.1 29.43 C14.02 30.73, 9.5 30.81, 6.92 29.28 C4.34 27.75, 2.85 23.63, 1.61 20.26 C0.37 16.89, -1.6 11.76, -0.51 9.04 C0.59 6.32, 5.15 5.68, 8.16 3.93 C11.17 2.18, 14.2 -3.36, 17.57 -1.45 C20.93 0.46, 27.2 10.93, 28.36 15.42 C29.52 19.91, 24.53 25.71, 24.54 25.49 M7.49 2.36 C9.9 0.22, 13.76 -0.59, 16.57 -0.22 C19.37 0.15, 22.39 2.77, 24.33 4.59 C26.26 6.4, 27.52 8.04, 28.18 10.65 C28.85 13.26, 29.75 17.57, 28.33 20.23 C26.91 22.88, 22.85 24.96, 19.64 26.57 C16.43 28.18, 11.55 31.06, 9.09 29.89 C6.64 28.72, 6.07 22.54, 4.9 19.57 C3.72 16.61, 1.64 14.28, 2.03 12.09 C2.42 9.89, 6.69 7.47, 7.23 6.42 C7.78 5.37, 5.17 6.48, 5.3 5.77" stroke="#e45d61" stroke-width="2" fill="none"></path></g><g stroke-linecap="round"><g transform="translate(469.35844418739157 115.91526894158474) rotate(0 -19.69984786685754 20.556559448547887)"><path d="M-0.97 0.81 C-12.59 9.87, -31.62 29.03, -37.86 40.31 M-1.5 1.82 C-11.55 10.57, -21.5 22.59, -38.43 37.6" stroke="#e45d61" stroke-width="2" fill="none"></path></g></g><mask></mask><g stroke-linecap="round"><g transform="translate(481.9113649508387 124.5454019664546) rotate(0 -3.1402882507244385 13.963815979384847)"><path d="M3.25 1.14 C-2.01 10.99, -8.36 20.97, -9.53 24.68 M1.12 -1.08 C-3.73 12.19, -9.52 20.72, -9.1 29.01" stroke="#e45d61" stroke-width="2" fill="none"></path></g></g><mask></mask><g stroke-linecap="round"><g transform="translate(507.8017640254483 122.97628687102372) rotate(0 6.387719873053982 14.463974310105648)"><path d="M-2.48 -0.7 C6.02 7.82, 3.85 13.47, 11.73 29.63 M-0.92 -0.41 C3.66 7.95, 8.99 17.87, 15.25 28.35" stroke="#e45d61" stroke-width="2" fill="none"></path></g></g><mask></mask><g stroke-linecap="round"><g transform="translate(514.8627819548872 108.06969346443032) rotate(0 23.841444429631224 20.78024776562394)"><path d="M-0.84 -2.77 C13.99 17.11, 26.69 24.66, 48.61 44.34 M-0.93 -0.91 C16.94 18.54, 35.2 35.5, 48.2 43.89" stroke="#e45d61" stroke-width="2" fill="none"></path></g></g><mask></mask><g stroke-linecap="round"><g transform="translate(230.85294968189706 189.66367842683633) rotate(0 -100.15531159480447 0.9712513117663875)"><path d="M-3.41 -1.09 C-63.92 -3.62, -118.65 0, -202.06 3.87 M1.75 0.51 C-53.62 -0.03, -105.08 2.47, -199.68 -1.85" stroke="#adadad" stroke-width="2" fill="none"></path></g></g><mask></mask><g stroke-linecap="round"><g transform="translate(230.85294968189706 125.32995951417004) rotate(0 -96.91142190535899 0.8260289656719735)"><path d="M3.47 -1.25 C-66.78 -3.81, -142.68 -1.27, -196.51 3.91 M1.06 0.17 C-73.44 3.6, -143.19 2.44, -197.3 1.23" stroke="#adadad" stroke-width="2" fill="none"></path></g></g><mask></mask><g stroke-linecap="round"><g transform="translate(230.85294968189706 66.48814343551186) rotate(0 -97.68316976269122 0.2730567628364611)"><path d="M3.42 2.27 C-71.78 -2.73, -145.11 -7.1, -196.88 3.56 M0.94 1.14 C-60.42 -0.82, -116.44 -2.24, -198.78 -0.37" stroke="#adadad" stroke-width="2" fill="none"></path></g></g><mask></mask><g stroke-linecap="round" transform="translate(126.50679583574322 75.90283400809716) rotate(0 10.591526894158477 10.591526894158477)"><path d="M8.55 1.77 C10.4 0.78, 13.77 -1.19, 15.5 -0.72 C17.24 -0.25, 18.21 2.26, 18.93 4.6 C19.66 6.94, 20.23 11.18, 19.87 13.32 C19.52 15.46, 18.5 16.3, 16.8 17.43 C15.1 18.56, 11.67 19.64, 9.66 20.09 C7.66 20.55, 6.2 21.21, 4.79 20.17 C3.39 19.13, 1.51 16.34, 1.22 13.86 C0.93 11.37, 1.77 7.28, 3.04 5.26 C4.31 3.24, 7.42 2.4, 8.85 1.73 C10.27 1.05, 11.45 1.18, 11.57 1.2 M3.44 -0.73 C5.27 -1.6, 9.3 -1.75, 11.73 -0.69 C14.17 0.38, 16.34 3.38, 18.05 5.66 C19.75 7.93, 21.58 10.77, 21.97 12.95 C22.35 15.12, 21.94 17.77, 20.37 18.71 C18.8 19.65, 15.73 18.95, 12.56 18.57 C9.39 18.19, 3.05 17.39, 1.36 16.42 C-0.33 15.45, 2.23 14.34, 2.41 12.76 C2.59 11.18, 1.98 8.81, 2.45 6.95 C2.92 5.1, 4.25 3.05, 5.22 1.63 C6.19 0.21, 7.8 -1.73, 8.26 -1.56" stroke="#e45d61" stroke-width="2" fill="none"></path></g><g stroke-linecap="round" transform="translate(153.9663100057837 97.87044534412956) rotate(0 10.591526894158477 10.591526894158477)"><path d="M4.8 1.6 C6.75 0.19, 12.01 -1.64, 14.34 -1.07 C16.67 -0.51, 17.78 3.06, 18.79 4.98 C19.79 6.9, 20.47 8.16, 20.35 10.46 C20.24 12.75, 19.48 17.04, 18.1 18.76 C16.72 20.48, 14.35 20.66, 12.07 20.75 C9.78 20.85, 6.13 20.92, 4.38 19.35 C2.63 17.77, 1.82 13.54, 1.58 11.3 C1.34 9.06, 0.55 7.62, 2.91 5.91 C5.28 4.2, 12.56 0.9, 15.75 1.04 C18.94 1.17, 22.43 6.59, 22.07 6.74 M12.96 -0.43 C14.98 -0.2, 17.85 1.91, 19.34 3.9 C20.83 5.89, 21.99 8.96, 21.93 11.53 C21.87 14.1, 21.47 17.54, 19 19.33 C16.52 21.13, 9.78 22.11, 7.1 22.31 C4.41 22.51, 3.84 22.55, 2.88 20.53 C1.92 18.51, 1.29 12.51, 1.32 10.18 C1.36 7.85, 1.69 7.71, 3.1 6.54 C4.51 5.37, 7.44 4.23, 9.79 3.18 C12.13 2.13, 16.56 0.59, 17.17 0.22 C17.79 -0.15, 13.55 0.62, 13.46 0.97" stroke="#e45d61" stroke-width="2" fill="none"></path></g><g stroke-linecap="round" transform="translate(172.79569115095433 75.11827646038171) rotate(0 10.591526894158477 10.591526894158477)"><path d="M3.04 2.72 C4.73 1.4, 9.32 2.04, 11.59 1.74 C13.86 1.44, 15 -0.17, 16.68 0.9 C18.36 1.97, 21.12 5.85, 21.66 8.16 C22.2 10.46, 21.26 12.82, 19.93 14.74 C18.6 16.67, 15.42 18.72, 13.66 19.69 C11.91 20.66, 11.23 20.89, 9.42 20.57 C7.62 20.25, 4.27 19.9, 2.84 17.79 C1.41 15.67, 0.25 10.96, 0.83 7.88 C1.42 4.8, 4.62 0.49, 6.35 -0.71 C8.08 -1.9, 11.01 0.6, 11.22 0.69 M11.39 1.9 C14.25 1.34, 17.13 2.78, 18.75 3.35 C20.38 3.92, 20.43 3.69, 21.16 5.31 C21.89 6.92, 23.79 10.74, 23.14 13.05 C22.49 15.36, 19.45 18.04, 17.25 19.17 C15.05 20.29, 12.61 20.39, 9.94 19.82 C7.27 19.24, 3.38 17.5, 1.24 15.72 C-0.91 13.93, -2.83 11.27, -2.95 9.11 C-3.07 6.95, -1.19 4.08, 0.51 2.74 C2.22 1.4, 5.75 1.27, 7.25 1.07 C8.75 0.86, 8.85 1.43, 9.54 1.52" stroke="#e45d61" stroke-width="2" fill="none"></path></g><g stroke-linecap="round" transform="translate(127.29135338345867 137.88288027761712) rotate(0 33.73597455176403 18.4371023713129)"><path d="M1.06 3.39 C28.55 4.26, 55.66 -1.11, 64.69 -0.67 M-1.77 -0.76 C24.05 0.12, 46.6 1.01, 69.45 -0.35 M70.97 1.93 C68.08 9.18, 65.61 17.03, 71.13 34.77 M67.56 -1.35 C66.86 13.78, 67.85 25.02, 69.17 36.53 M69.48 40.54 C40.51 39.2, 16.07 34.65, 3.92 37.83 M68.73 38.3 C53.11 38.22, 40 39.13, 1.51 35.51 M3.34 36.3 C-3.37 23.7, 0.7 9.26, 1.89 3.03 M-1.6 36.02 C0.86 21.08, 2.2 9.64, -1.51 -1.13" stroke="#e45d61" stroke-width="2" fill="none"></path></g><g transform="translate(36.67495662232504 86.10208212839791) rotate(0 21.575332562174673 9.806969346443033)"><text x="21.57533256217467" y="13.613938692886062" font-family="Virgil, Papyrus, Segoe UI Emoji" font-size="15.69115095430885px" fill="#adadad" text-anchor="middle" style="white-space: pre;" direction="ltr">Layer</text></g><g transform="translate(36.67495662232504 146.513013302487) rotate(0 21.575332562174673 9.806969346443033)"><text x="21.57533256217467" y="13.613938692886062" font-family="Virgil, Papyrus, Segoe UI Emoji" font-size="15.69115095430885px" fill="#adadad" text-anchor="middle" style="white-space: pre;" direction="ltr">Layer</text></g><g transform="translate(10 10) rotate(0 121.99869866975132 13.729757085020239)"><text x="121.9986986697513" y="19.45951417004049" font-family="Virgil, Papyrus, Segoe UI Emoji" font-size="21.96761133603239px" fill="#181818" text-anchor="middle" style="white-space: pre;" direction="ltr">Stage (graphics/audio)</text></g><g transform="translate(431.69968189705037 10) rotate(0 65.90283400809716 13.729757085020239)"><text x="65.90283400809717" y="19.45951417004049" font-family="Virgil, Papyrus, Segoe UI Emoji" font-size="21.96761133603239px" fill="#181818" text-anchor="middle" style="white-space: pre;" direction="ltr">Scene (logic)</text></g><g stroke-linecap="round"><g transform="translate(377.5652111046848 95.51677270098324) rotate(0 -36.25673116253503 -1.5829021938073993)"><path d="M-3.15 -3.33 C-21.74 -1.9, -46.2 -1.84, -69.75 -1.53 M1.77 1.6 C-30.56 -3.01, -56.88 -4.45, -74.28 -4.76" stroke="#181818" stroke-width="4" fill="none"></path></g><g transform="translate(377.5652111046848 95.51677270098324) rotate(0 -36.25673116253503 -1.5829021938073993)"><path d="M-48.9 -17.34 C-53.19 -11.51, -63.44 -7.24, -71.07 -2.37 M-43.98 -12.42 C-58.61 -11.93, -67.3 -8.14, -75.6 -5.6" stroke="#181818" stroke-width="4" fill="none"></path></g><g transform="translate(377.5652111046848 95.51677270098324) rotate(0 -36.25673116253503 -1.5829021938073993)"><path d="M-49.62 3.17 C-53.81 2.44, -63.83 0.15, -71.07 -2.37 M-44.7 8.09 C-59.15 0.43, -67.56 -3.92, -75.6 -5.6" stroke="#181818" stroke-width="4" fill="none"></path></g></g><mask></mask><g stroke-linecap="round"><g transform="translate(487.4032677848468 208.7246963562753) rotate(0 -0.4156884979456663 18.76200400427751)"><path d="M0.02 -1.27 C1.56 10.37, 0.46 16.27, -2.13 38.8 M-0.52 -0.4 C0.17 7.46, -1.85 18.17, 1.3 35.55" stroke="#181818" stroke-width="4" fill="none"></path></g><g transform="translate(487.4032677848468 208.7246963562753) rotate(0 -0.4156884979456663 18.76200400427751)"><path d="M-6.98 17.92 C-3.62 24.01, -2.36 24.64, -0.66 37.32 M-7.48 18.72 C-4.85 21.79, -4.68 27.37, 2.5 34.33" stroke="#181818" stroke-width="4" fill="none"></path></g><g transform="translate(487.4032677848468 208.7246963562753) rotate(0 -0.4156884979456663 18.76200400427751)"><path d="M5.54 16.43 C5.5 22.68, 3.33 23.72, -0.66 37.32 M5.04 17.24 C4.61 20.5, 1.72 26.44, 2.5 34.33" stroke="#181818" stroke-width="4" fill="none"></path></g></g><mask></mask><g transform="translate(147.3006072874494 323.3775303643725) rotate(0 21.96761133603239 9.806969346443033)"><text x="21.96761133603239" y="13.613938692886062" font-family="Virgil, Papyrus, Segoe UI Emoji" font-size="15.69115095430885px" fill="#e45d61" text-anchor="middle" style="white-space: pre;" direction="ltr">Media</text></g><g transform="translate(290.09008097166 323.3775303643725) rotate(0 21.183053788316954 9.806969346443033)"><text x="21.183053788316947" y="13.613938692886062" font-family="Virgil, Papyrus, Segoe UI Emoji" font-size="15.69115095430885px" fill="#e45d61" text-anchor="middle" style="white-space: pre;" direction="ltr">Input</text></g><g transform="translate(424.2494216310006 324.16208791208794) rotate(0 30.597744360902254 9.806969346443033)"><text x="30.597744360902258" y="13.613938692886062" font-family="Virgil, Papyrus, Segoe UI Emoji" font-size="15.69115095430885px" fill="#e45d61" text-anchor="middle" style="white-space: pre;" direction="ltr">Network</text></g><g transform="translate(277.92943898207056 276.70098322729905) rotate(0 33.343695777906305 9.806969346443033)"><text x="33.343695777906305" y="13.613938692886062" font-family="Virgil, Papyrus, Segoe UI Emoji" font-size="15.69115095430885px" fill="#e45d61" text-anchor="middle" style="white-space: pre;" direction="ltr">Renderer</text></g><g stroke-linecap="round"><g transform="translate(129.90326778484697 248.7246963562753) rotate(0 -1.256493312458474 -19.87744655340593)"><path d="M-1.94 -0.98 C-3.32 -6.48, 0.71 -18.23, -1.69 -41.65 M-0.72 1.89 C0.73 -12.86, -1.89 -24.02, -1.21 -40.75" stroke="#181818" stroke-width="4" fill="none"></path></g><g transform="translate(129.90326778484697 248.7246963562753) rotate(0 -1.256493312458474 -19.87744655340593)"><path d="M4.14 -22.05 C1.5 -22.43, 3.88 -29.12, -2.89 -40.43 M5.36 -19.18 C5.04 -27.69, 0.42 -32.74, -2.41 -39.53" stroke="#181818" stroke-width="4" fill="none"></path></g><g transform="translate(129.90326778484697 248.7246963562753) rotate(0 -1.256493312458474 -19.87744655340593)"><path d="M-10.22 -21.97 C-9.59 -22.48, -3.96 -29.19, -2.89 -40.43 M-8.99 -19.1 C-5.38 -27.89, -6.07 -32.96, -2.41 -39.53" stroke="#181818" stroke-width="4" fill="none"></path></g></g><mask></mask></svg>