<svg version="1.1" xmlns="http://www.w3.org/2000/svg" viewBox="0 0 592.3347310584154 360.837044534413" width="1184.6694621168308" height="721.674089068826">
  <!-- svg-source:excalidraw -->
  
  <defs>
    <style class="style-fonts">
      @font-face {
        font-family: "Virgil";
        src: url("https://excalidraw.com/Virgil.woff2");
      }
      @font-face {
        font-family: "Cascadia";
        src: url("https://excalidraw.com/Cascadia.woff2");
      }
    </style>
    
  </defs>
  <rect x="0" y="0" width="592.3347310584154" height="360.837044534413" fill="#ffffff"></rect><g stroke-linecap="round" transform="translate(108.07272990167729 316.31651243493354) rotate(0 61.98004626951996 17.260266049739734)"><path d="M0.68 0.15 C33.91 1.14, 73.18 4.8, 122 0.52 M1.25 1.74 C35.68 -2.16, 71.46 -0.68, 122.25 -1.35 M122.3 3.34 C126.56 9.4, 125.65 15.14, 120.95 31.24 M122.21 0.33 C123.84 8.4, 124.04 21.98, 124.11 36.2 M126.1 34.66 C84.74 35.91, 45.61 36, 3.58 31.72 M125.08 33.22 C77.24 33.26, 33.27 33.78, -0.03 35.74 M2.27 32.59 C-4.5 21.11, -2.99 19.37, 2.41 3.9 M0.48 35.93 C0.92 23.64, 1.15 15.63, 0.16 -0.83" stroke="#e45d61" stroke-width="2" fill="none"></path></g><g stroke-linecap="round" transform="translate(250.07764603817236 316.31651243493354) rotate(0 61.98004626951996 17.260266049739734)"><path d="M-2.95 -3.48 C34.84 3.31, 71 1.14, 123.49 0.29 M0.44 0.51 C41.37 0.4, 78.53 0.83, 122.47 -1.23 M123.13 -3.17 C122.67 17.25, 121.77 24.47, 121.3 36.97 M125.87 -0.85 C125.78 11.15, 122.69 23.59, 122.63 33.48 M121.06 34.71 C78.87 34.59, 33.94 36.24, -3.84 35.2 M123.97 35.73 C85.34 34.02, 48.36 34.31, 0.52 35.77 M1.96 34.43 C-3.57 18.46, -3.79 10.85, 1.28 -1.66 M0.58 34.88 C-1.86 19.64, -0.51 9.3, 1.31 -1.75" stroke="#e45d61" stroke-width="2" fill="none"></path></g><g stroke-linecap="round" transform="translate(394.4362348178138 316.31651243493354) rotate(0 61.98004626951996 17.260266049739734)"><path d="M1.02 2.54 C40.6 -1.86, 79.95 3.36, 126.75 2.33 M0.25 1.1 C37.43 0.62, 75.79 -1.42, 125.26 -1.41 M125.25 3.28 C122.99 12.24, 122.95 22.65, 127.82 33.12 M123.94 1.85 C121.62 10.52, 125.07 19.16, 123.95 33.55 M125.38 33.94 C99.9 33.46, 77.3 31.06, -1.68 36.49 M122.56 34.11 C82.94 35.25, 41.21 33.68, -0.02 34.36 M-0.75 31.91 C-4 25.32, 2.69 8.16, 2.05 -0.34 M-0.48 34.84 C-2.16 26.42, -2.27 19.08, -0.36 0.16" stroke="#e45d61" stroke-width="2" fill="none"></path></g><g stroke-linecap="round" transform="translate(108.07272990167729 268.8554077501446) rotate(0 206.33863504916135 17.260266049739734)"><path d="M-0.34 0.71 C88.08 -0.9, 180.63 -2.34, 411.98 -0.39 M-0.59 0.67 C161.25 0.73, 323.96 1.58, 412.12 0.34 M411.16 3.5 C411.91 3.5, 411.33 16.27, 410.36 32.35 M410.87 1.82 C412.07 6.02, 411.16 15.21, 412.65 33.7 M412.85 36.21 C320.35 36.6, 230.14 35.53, -1.28 32.73 M413.07 35.39 C329.31 36.49, 244.21 35.94, -0.93 33.8 M1.48 38.31 C1.23 22.05, 0.84 5.06, -2.74 -3.54 M0.56 36.44 C-0.95 23.91, -1.28 14.24, -1.09 1.62" stroke="#e45d61" stroke-width="2" fill="none"></path></g><g stroke-linecap="round" transform="translate(465.43565644881437 76.68739155581261) rotate(0 25.105841526894153 25.10584152689416)"><path d="M39.95 6.05 C44.04 9.11, 46.9 14.64, 48.54 19.26 C50.18 23.88, 51.91 28.96, 49.8 33.75 C47.68 38.55, 41.12 45.61, 35.86 48.03 C30.6 50.46, 23.7 49.91, 18.23 48.29 C12.75 46.67, 6.21 42.17, 2.99 38.33 C-0.22 34.48, -1.92 30.2, -1.04 25.21 C-0.17 20.22, 4.56 12.38, 8.24 8.38 C11.93 4.39, 14.14 -0.51, 21.08 1.24 C28.03 3, 45.63 12.67, 49.91 18.88 C54.19 25.1, 47.39 38.26, 46.76 38.54 M14.28 1.2 C18.66 -0.74, 23.23 0.68, 28.24 1.8 C33.25 2.93, 41.01 3.45, 44.37 7.96 C47.73 12.47, 48.99 23.03, 48.42 28.86 C47.85 34.69, 44.32 39.04, 40.98 42.94 C37.64 46.83, 32.88 52.14, 28.36 52.23 C23.84 52.32, 18.22 46.42, 13.86 43.49 C9.51 40.56, 4.43 39.62, 2.25 34.65 C0.08 29.67, -0.97 18.72, 0.81 13.62 C2.6 8.53, 10.7 5.71, 12.94 4.07 C15.19 2.43, 13.61 3.92, 14.27 3.77" stroke="#e45d61" stroke-width="2" fill="none"></path></g><g stroke-linecap="round" transform="translate(406.0247252747253 152.78947368421055) rotate(0 14.514314632735676 14.514314632735687)"><path d="M19.65 1.22 C21.98 2.96, 25.87 7.2, 27.21 10.31 C28.54 13.41, 28.63 17.33, 27.64 19.83 C26.65 22.32, 24.12 23.77, 21.26 25.27 C18.4 26.78, 13.65 29.34, 10.5 28.88 C7.36 28.41, 4.1 24.77, 2.39 22.49 C0.68 20.2, 0.38 18.03, 0.23 15.18 C0.08 12.33, -0.27 7.58, 1.5 5.41 C3.27 3.23, 6.99 2.49, 10.87 2.14 C14.75 1.79, 22.14 2.03, 24.78 3.3 C27.43 4.58, 27.1 9.58, 26.75 9.8 M7.52 -1.54 C9.69 -3.05, 12.74 -0.73, 15.99 1.09 C19.23 2.92, 24.77 7.36, 27.01 9.41 C29.25 11.45, 30.19 11.11, 29.42 13.38 C28.65 15.64, 24.84 20.55, 22.4 23 C19.97 25.46, 17.21 27.44, 14.81 28.11 C12.4 28.78, 10.69 29.19, 7.97 27.04 C5.25 24.89, -0.51 18.85, -1.53 15.21 C-2.54 11.58, 0.24 7.64, 1.87 5.24 C3.5 2.85, 6.81 1.01, 8.24 0.83 C9.67 0.65, 9.8 4.33, 10.45 4.18" stroke="#e45d61" stroke-width="2" fill="none"></path></g><g stroke-linecap="round" transform="translate(452.8827356853673 152.78947368421055) rotate(0 14.514314632735676 14.514314632735687)"><path d="M3.21 1.71 C5.21 -0.47, 12.23 0.49, 15.56 0.69 C18.88 0.9, 20.81 0.93, 23.14 2.96 C25.46 5, 28.52 9.84, 29.5 12.9 C30.48 15.96, 30.74 18.95, 29 21.34 C27.27 23.74, 22.41 25.86, 19.09 27.26 C15.78 28.65, 12 30.73, 9.13 29.69 C6.27 28.65, 3.32 23.84, 1.91 21 C0.5 18.17, -1.46 16.45, 0.66 12.67 C2.78 8.89, 10.97 0.37, 14.66 -1.66 C18.34 -3.68, 23.17 -0.09, 22.79 0.53 M18.38 -1.46 C21.56 -0.96, 27.81 3.96, 29.24 7.09 C30.67 10.22, 28.35 14.18, 26.97 17.32 C25.58 20.46, 22.88 23.93, 20.94 25.92 C19 27.9, 18.04 29.55, 15.35 29.21 C12.66 28.87, 7.03 26.16, 4.8 23.85 C2.58 21.54, 2.4 17.64, 2.01 15.34 C1.61 13.04, 1.61 12.08, 2.44 10.04 C3.28 7.99, 4.23 4.92, 7 3.09 C9.78 1.26, 16.87 -0.46, 19.09 -0.95 C21.3 -1.44, 19.81 -0.49, 20.3 0.15" stroke="#e45d61" stroke-width="2" fill="none"></path></g><g stroke-linecap="round" transform="translate(504.6635338345865 152.78947368421055) rotate(0 14.514314632735704 14.514314632735687)"><path d="M7.91 2.87 C10.24 0.97, 13.68 -1.66, 16.94 -1.21 C20.2 -0.76, 25.67 2.82, 27.48 5.58 C29.29 8.34, 28.49 12.2, 27.79 15.36 C27.09 18.51, 25.08 22.24, 23.27 24.52 C21.46 26.8, 19.75 28.86, 16.95 29.03 C14.14 29.2, 8.96 27.44, 6.44 25.56 C3.93 23.68, 2.69 20.19, 1.86 17.73 C1.02 15.27, 0.36 13.39, 1.44 10.79 C2.52 8.2, 6.56 4.11, 8.34 2.18 C10.12 0.25, 11.69 -0.65, 12.15 -0.78 M27.13 8.57 C29.06 10.29, 31.43 12.58, 30.6 15.29 C29.77 18, 24.61 22.88, 22.17 24.83 C19.74 26.77, 18.56 26.3, 16.01 26.96 C13.46 27.62, 9.05 30.06, 6.88 28.79 C4.71 27.52, 3.86 22.87, 2.99 19.34 C2.11 15.8, 0.32 10.41, 1.63 7.59 C2.94 4.77, 7.54 3.5, 10.83 2.41 C14.13 1.33, 18.99 0.55, 21.4 1.08 C23.81 1.6, 24 4.14, 25.29 5.55 C26.58 6.96, 29 9.55, 29.12 9.54" stroke="#e45d61" stroke-width="2" fill="none"></path></g><g stroke-linecap="round" transform="translate(553.306101792944 152.78947368421055) rotate(0 14.514314632735704 14.514314632735687)"><path d="M26.51 5.12 C28.83 6.74, 29.74 9.44, 29.56 12.17 C29.37 14.9, 27.47 18.61, 25.4 21.49 C23.32 24.37, 20.18 28.13, 17.1 29.43 C14.02 30.73, 9.5 30.81, 6.92 29.28 C4.34 27.75, 2.85 23.63, 1.61 20.26 C0.37 16.89, -1.6 11.76, -0.51 9.04 C0.59 6.32, 5.15 5.68, 8.16 3.93 C11.17 2.18, 14.2 -3.36, 17.57 -1.45 C20.93 0.46, 27.2 10.93, 28.36 15.42 C29.52 19.91, 24.53 25.71, 24.54 25.49 M7.49 2.36 C9.9 0.22, 13.76 -0.59, 16.57 -0.22 C19.37 0.15, 22.39 2.77, 24.33 4.59 C26.26 6.4, 27.52 8.04, 28.18 10.65 C28.85 13.26, 29.75 17.57, 28.33 20.23 C26.91 22.88, 22.85 24.96, 19.64 26.57 C16.43 28.18, 11.55 31.06, 9.09 29.89 C6.64 28.72, 6.07 22.54, 4.9 19.57 C3.72 16.61, 1.64 14.28, 2.03 12.09 C2.42 9.89, 6.69 7.47, 7.23 6.42 C7.78 5.37, 5.17 6.48, 5.3 5.77" stroke="#e45d61" stroke-width="2" fill="none"></path></g><g stroke-linecap="round"><g transform="translate(469.35844418739157 115.91526894158474) rotate(0 -19.69984786685754 20.556559448547887)"><path d="M-0.97 0.81 C-12.59 9.87, -31.62 29.03, -37.86 40.31 M-1.5 1.82 C-11.55 10.57, -21.5 22.59, -38.43 37.6" stroke="#e45d61" stroke-width="2" fill="none"></path></g></g><mask></mask><g stroke-linecap="round"><g transform="translate(481.9113649508387 124.5454019664546) rotate(0 -3.1402882507244385 13.963815979384847)"><path d="M3.25 1.14 C-2.01 10.99, -8.36 20.97, -9.53 24.68 M1.12 -1.08 C-3.73 12.19, -9.52 20.72, -9.1 29.01" stroke="#e45d61" stroke-width="2" fill="none"></path></g></g><mask></mask><g stroke-linecap="round"><g transform="translate(507.8017640254483 122.97628687102372) rotate(0 6.387719873053982 14.463974310105648)"><path d="M-2.48 -0.7 C6.02 7.82, 3.85 13.47, 11.73 29.63 M-0.92 -0.41 C3.66 7.95, 8.99 17.87, 15.25 28.35" stroke="#e45d61" stroke-width="2" fill="none"></path></g></g><mask></mask><g stroke-linecap="round"><g transform="translate(514.8627819548872 108.06969346443032) rotate(0 23.841444429631224 20.78024776562394)"><path d="M-0.84 -2.77 C13.99 17.11, 26.69 24.66, 48.61 44.34 M-0.93 -0.91 C16.94 18.54, 35.2 35.5, 48.2 43.89" stroke="#e45d61" stroke-width="2" fill="none"></path></g></g><mask></mask><g transform="translate(10 10) rotate(0 121.99869866975132 13.729757085020239)"><text x="121.9986986697513" y="0" font-family="Virgil, Segoe UI Emoji" font-size="21.96761133603239px" fill="#181818" text-anchor="middle" style="white-space: pre;" direction="ltr" dominant-baseline="text-before-edge">Stage (graphics/audio)</text></g><g transform="translate(431.69968189705037 10) rotate(0 65.90283400809716 13.729757085020239)"><text x="65.90283400809717" y="0" font-family="Virgil, Segoe UI Emoji" font-size="21.96761133603239px" fill="#181818" text-anchor="middle" style="white-space: pre;" direction="ltr" dominant-baseline="text-before-edge">Scene (logic)</text></g><g stroke-linecap="round"><g transform="translate(397.8966382328558 123.0604148939158) rotate(0 -56.42244472662054 -0.19828200593010337)"><path d="M-3.15 -3.33 C-34.61 -0.65, -71.98 0.84, -110.08 2.93 M1.77 1.6 C-46.55 -1.12, -88.87 -0.79, -114.61 -0.31" stroke="#181818" stroke-width="4" fill="none"></path></g><g transform="translate(397.8966382328558 123.0604148939158) rotate(0 -56.42244472662054 -0.19828200593010337)"><path d="M-89.69 -14.22 C-93.83 -7.96, -103.93 -3.26, -111.4 2.09 M-84.77 -9.3 C-99.22 -8.28, -107.72 -3.97, -115.93 -1.14" stroke="#181818" stroke-width="4" fill="none"></path></g><g transform="translate(397.8966382328558 123.0604148939158) rotate(0 -56.42244472662054 -0.19828200593010337)"><path d="M-89.46 6.3 C-93.8 6, -103.97 4.13, -111.4 2.09 M-84.54 11.22 C-99.18 4.09, -107.78 0.27, -115.93 -1.14" stroke="#181818" stroke-width="4" fill="none"></path></g></g><mask></mask><g stroke-linecap="round"><g transform="translate(487.4032677848468 208.7246963562753) rotate(0 -0.4156884979456663 18.76200400427751)"><path d="M0.02 -1.27 C1.56 10.37, 0.46 16.27, -2.13 38.8 M-0.52 -0.4 C0.17 7.46, -1.85 18.17, 1.3 35.55" stroke="#181818" stroke-width="4" fill="none"></path></g><g transform="translate(487.4032677848468 208.7246963562753) rotate(0 -0.4156884979456663 18.76200400427751)"><path d="M-6.98 17.92 C-3.62 24.01, -2.36 24.64, -0.66 37.32 M-7.48 18.72 C-4.85 21.79, -4.68 27.37, 2.5 34.33" stroke="#181818" stroke-width="4" fill="none"></path></g><g transform="translate(487.4032677848468 208.7246963562753) rotate(0 -0.4156884979456663 18.76200400427751)"><path d="M5.54 16.43 C5.5 22.68, 3.33 23.72, -0.66 37.32 M5.04 17.24 C4.61 20.5, 1.72 26.44, 2.5 34.33" stroke="#181818" stroke-width="4" fill="none"></path></g></g><mask></mask><g transform="translate(147.3006072874494 323.3775303643725) rotate(0 21.96761133603239 9.806969346443033)"><text x="21.96761133603239" y="0" font-family="Virgil, Segoe UI Emoji" font-size="15.69115095430885px" fill="#e45d61" text-anchor="middle" style="white-space: pre;" direction="ltr" dominant-baseline="text-before-edge">Media</text></g><g transform="translate(290.09008097166 323.3775303643725) rotate(0 21.183053788316954 9.806969346443033)"><text x="21.183053788316947" y="0" font-family="Virgil, Segoe UI Emoji" font-size="15.69115095430885px" fill="#e45d61" text-anchor="middle" style="white-space: pre;" direction="ltr" dominant-baseline="text-before-edge">Input</text></g><g transform="translate(424.2494216310006 324.16208791208794) rotate(0 30.597744360902254 9.806969346443033)"><text x="30.597744360902258" y="0" font-family="Virgil, Segoe UI Emoji" font-size="15.69115095430885px" fill="#e45d61" text-anchor="middle" style="white-space: pre;" direction="ltr" dominant-baseline="text-before-edge">Network</text></g><g transform="translate(277.92943898207056 276.70098322729905) rotate(0 33.343695777906305 9.806969346443033)"><text x="33.343695777906305" y="0" font-family="Virgil, Segoe UI Emoji" font-size="15.69115095430885px" fill="#e45d61" text-anchor="middle" style="white-space: pre;" direction="ltr" dominant-baseline="text-before-edge">Renderer</text></g><g stroke-linecap="round"><g transform="translate(129.90326778484697 248.7246963562753) rotate(0 -1.2054136883051143 -19.877446553405925)"><path d="M-1.94 -0.98 C-3.25 -6.48, 0.86 -18.24, -1.34 -41.65 M-0.72 1.89 C0.83 -12.87, -1.7 -24.03, -0.86 -40.75" stroke="#181818" stroke-width="4" fill="none"></path></g><g transform="translate(129.90326778484697 248.7246963562753) rotate(0 -1.2054136883051143 -19.877446553405925)"><path d="M4.3 -21.99 C1.71 -22.38, 4.12 -29.09, -2.55 -40.43 M5.53 -19.11 C5.26 -27.65, 0.68 -32.72, -2.07 -39.53" stroke="#181818" stroke-width="4" fill="none"></path></g><g transform="translate(129.90326778484697 248.7246963562753) rotate(0 -1.2054136883051143 -19.877446553405925)"><path d="M-10.05 -22.04 C-9.39 -22.54, -3.71 -29.23, -2.55 -40.43 M-8.83 -19.16 C-5.16 -27.94, -5.8 -33, -2.07 -39.53" stroke="#181818" stroke-width="4" fill="none"></path></g></g><mask></mask><g stroke-linecap="round" transform="translate(10.072729901677292 72.8554077501446) rotate(0 122.83863504916138 55.76026604973973)"><path d="M-1.53 2.15 C70.46 4.43, 146.91 5.95, 243.14 1.51 M0.83 -0.9 C66.61 -4.73, 131.77 -2.58, 246.85 -1.49 M246.68 2.53 C245 42.03, 247.63 83.32, 245.4 110.6 M246.15 -0.33 C242.82 35.19, 242.98 68.01, 246.07 110.84 M244.31 113.38 C165.53 113.57, 87.63 108.83, 1.63 112.4 M245.43 110.39 C148.04 111.11, 51.7 109.89, -0.73 110.38 M0.46 108.46 C-2.39 74.92, -1.26 38.25, -2.11 -0.13 M-0.1 111.39 C1.67 86.43, 0.09 61.79, -0.2 0.27" stroke="#e45d61" stroke-width="2" fill="none"></path></g><g stroke-linecap="round" transform="translate(149.0727299016773 92.8554077501446) rotate(0 42.33863504916138 35.26026604973973)"><path d="M0.2 2.55 C16.26 4.86, 38.57 2.4, 82.18 -3.87 M-1.08 1.05 C24.87 0.6, 49.08 -0.07, 85.61 0.88 M83.46 -2.52 C80.27 16.03, 86.36 29.89, 81.3 72.93 M84.96 -0.61 C84.96 21.59, 86.16 45.89, 83.62 68.66 M87.05 73.81 C55.98 70.14, 27.33 69.35, 1.98 70.78 M84.75 71.97 C55.95 73.2, 27.19 72.18, -0.76 71.74 M-0.47 71.43 C-2.98 42.03, -4.41 18.52, 2.04 -0.48 M0.38 70.96 C0.58 50.03, 0.67 30.46, 0.92 -0.59" stroke="#e45d61" stroke-width="1" fill="none"></path></g><g stroke-linecap="round" transform="translate(155.0247252747254 100.78947368421055) rotate(0 14.51431463273569 14.51431463273569)"><path d="M12.32 -1.01 C14.98 -1.96, 17.45 0.38, 19.76 2.04 C22.08 3.7, 24.84 5.93, 26.21 8.97 C27.58 12.01, 28.4 16.98, 28 20.3 C27.6 23.61, 26.72 27.71, 23.81 28.85 C20.9 29.99, 13.89 27.92, 10.54 27.16 C7.19 26.4, 5.6 26.24, 3.71 24.3 C1.82 22.37, -1.04 18.85, -0.82 15.53 C-0.6 12.21, 2.39 6.71, 5.04 4.39 C7.68 2.07, 12.86 1.98, 15.04 1.62 C17.21 1.26, 18.05 2.17, 18.07 2.22 M5.43 6.49 C6.53 5.05, 8.16 4.38, 10.56 3.18 C12.96 1.98, 16.9 -1.61, 19.84 -0.71 C22.77 0.18, 26.92 4.75, 28.17 8.55 C29.43 12.34, 28.02 18.87, 27.39 22.05 C26.77 25.23, 26.81 26.84, 24.43 27.62 C22.05 28.4, 16.92 27.36, 13.12 26.73 C9.31 26.1, 3.8 25.38, 1.62 23.86 C-0.57 22.34, -0.59 20.7, 0.03 17.64 C0.64 14.58, 4.32 7.18, 5.31 5.49 C6.29 3.81, 5.84 7.39, 5.93 7.56" stroke="#e45d61" stroke-width="1" fill="none"></path></g><g stroke-linecap="round" transform="translate(191.0247252747254 121.78947368421055) rotate(0 14.51431463273569 14.51431463273569)"><path d="M26.59 5.81 C28.51 8.74, 28.46 14.57, 28.41 17.83 C28.36 21.08, 28.33 23.73, 26.29 25.36 C24.25 26.98, 19.78 27.45, 16.19 27.59 C12.6 27.73, 7.36 27.46, 4.74 26.2 C2.12 24.94, 0.78 23.01, 0.45 20.02 C0.13 17.04, 1.17 11.19, 2.8 8.29 C4.42 5.4, 7.43 3.9, 10.2 2.64 C12.98 1.39, 16.05 -0.74, 19.44 0.76 C22.83 2.26, 28.94 9.26, 30.53 11.66 C32.13 14.06, 29.63 15.45, 29.02 15.17 M17.82 0.01 C20.74 0.41, 20.71 0.95, 22.21 3.4 C23.71 5.85, 25.75 11.22, 26.82 14.72 C27.9 18.23, 30.55 22.32, 28.68 24.43 C26.81 26.54, 19.16 27, 15.6 27.4 C12.04 27.79, 9.52 27.69, 7.32 26.8 C5.12 25.92, 3.65 24.81, 2.39 22.1 C1.12 19.4, -0.85 13.84, -0.26 10.58 C0.33 7.31, 3.11 3.81, 5.92 2.53 C8.74 1.26, 14.64 3.64, 16.63 2.94 C18.62 2.23, 18.41 -1.63, 17.84 -1.7" stroke="#e45d61" stroke-width="1" fill="none"></path></g><g stroke-linecap="round" transform="translate(62.024725274725355 111.78947368421055) rotate(0 14.514314632735683 14.51431463273569)"><path d="M4.47 8.15 C5.8 5.59, 7.02 2.51, 9.89 1.18 C12.77 -0.14, 18.83 -0.99, 21.72 0.2 C24.61 1.39, 25.86 5.58, 27.23 8.32 C28.6 11.06, 30.99 13.86, 29.96 16.65 C28.93 19.43, 23.5 22.9, 21.06 25.03 C18.63 27.15, 18.22 29.1, 15.35 29.37 C12.48 29.64, 6.49 28.76, 3.85 26.64 C1.22 24.51, -0.61 20.29, -0.46 16.62 C-0.32 12.94, 2.59 7.55, 4.7 4.59 C6.82 1.63, 12.13 -1.21, 12.22 -1.15 M20.5 2.28 C23.98 3.11, 28.64 4.41, 29.92 6.64 C31.2 8.87, 29.31 12.14, 28.19 15.68 C27.06 19.22, 25.48 25.88, 23.19 27.9 C20.9 29.93, 17.35 28.05, 14.47 27.83 C11.58 27.61, 7.89 28.84, 5.88 26.61 C3.86 24.39, 2.73 18.13, 2.36 14.49 C2 10.85, 2.73 6.91, 3.68 4.78 C4.64 2.65, 5.29 2.34, 8.09 1.7 C10.89 1.07, 18.31 1.25, 20.5 0.97 C22.69 0.69, 21.87 -0.55, 21.22 0.02" stroke="#e45d61" stroke-width="1" fill="none"></path></g></svg>